<?xml version="1.0" encoding="UTF-8" standalone="no"?><!DOCTYPE svg PUBLIC "-//W3C//DTD SVG 1.1//EN" "http://www.w3.org/Graphics/SVG/1.1/DTD/svg11.dtd"><svg width="100%" height="100%" viewBox="0 0 1108 462" version="1.1" xmlns="http://www.w3.org/2000/svg" xmlns:xlink="http://www.w3.org/1999/xlink" xml:space="preserve" xmlns:serif="http://www.serif.com/" style="fill-rule:evenodd;clip-rule:evenodd;stroke-linecap:round;stroke-linejoin:round;stroke-miterlimit:1.5;"><g><rect x="0" y="0" width="218.182" height="218.182" style="fill:#f2b035;"/><rect x="239.969" y="0" width="218.182" height="218.182" style="fill:#f22d1b;"/><rect x="0" y="239.983" width="218.182" height="218.182" style="fill:#0da64f;"/><path d="M109.091,261.694c48.226,0 87.38,39.154 87.38,87.38c0,48.226 -39.154,87.38 -87.38,87.38c-48.226,0 -87.38,-39.154 -87.38,-87.38c0,-48.226 39.154,-87.38 87.38,-87.38Zm0,17.15c-38.761,0 -70.23,31.469 -70.23,70.23c0,38.761 31.469,70.23 70.23,70.23c38.761,0 70.23,-31.469 70.23,-70.23c0,-38.761 -31.469,-70.23 -70.23,-70.23Z" style="fill:#fff;"/><path d="M349.06,121.22l-52.69,52.69c-1.674,1.674 -4.391,1.674 -6.065,-0l-6.065,-6.065c-1.674,-1.674 -1.674,-4.391 -0,-6.065l52.69,-52.69l-52.69,-52.69c-1.674,-1.674 -1.674,-4.391 0,-6.065l6.065,-6.065c1.674,-1.674 4.391,-1.674 6.065,-0l52.69,52.69l52.69,-52.69c1.674,-1.674 4.391,-1.674 6.065,0l6.065,6.065c1.674,1.674 1.674,4.391 0,6.065l-52.69,52.69l52.69,52.69c1.674,1.674 1.674,4.391 -0,6.065l-6.065,6.065c-1.674,1.674 -4.391,1.674 -6.065,0l-52.69,-52.69Z" style="fill:#fff;"/><path d="M182.071,59.502l-145.96,45.851l139.979,53.327" style="fill:none;stroke:#fff;stroke-width:17.27px;"/><path d="M240.586,458.428l0,-218.75l116.875,0c30.208,0 52.5,5.365 66.875,16.094c14.375,10.729 21.562,24.427 21.562,41.094c0,11.042 -3.073,20.885 -9.219,29.531c-6.146,8.646 -15.052,15.469 -26.719,20.469c-11.667,5 -26.042,7.5 -43.125,7.5l6.25,-16.875c17.083,0 31.823,2.396 44.219,7.188c12.396,4.792 21.979,11.719 28.75,20.781c6.771,9.062 10.156,19.948 10.156,32.656c0,18.958 -7.865,33.75 -23.594,44.375c-15.729,10.625 -38.698,15.938 -68.906,15.938l-123.125,0Zm72.5,-51.562l44.375,0c8.125,0 14.219,-1.458 18.281,-4.375c4.063,-2.917 6.094,-7.188 6.094,-12.812c0,-5.625 -2.031,-9.896 -6.094,-12.812c-4.062,-2.917 -10.156,-4.375 -18.281,-4.375l-49.375,0l0,-48.75l39.375,0c8.333,0 14.427,-1.406 18.281,-4.219c3.854,-2.812 5.781,-6.823 5.781,-12.031c0,-5.417 -1.927,-9.479 -5.781,-12.188c-3.854,-2.708 -9.948,-4.062 -18.281,-4.062l-34.375,0l0,115.625Z" style="fill:#3258a6;fill-rule:nonzero;"/><path d="M583.399,458.428l0,-30.312l-5,-8.125l0,-57.5c0,-8.333 -2.552,-14.688 -7.656,-19.062c-5.104,-4.375 -13.385,-6.562 -24.844,-6.562c-7.708,0 -15.521,1.198 -23.438,3.594c-7.917,2.396 -14.687,5.677 -20.312,9.844l-22.5,-46.562c10,-6.25 21.979,-11.042 35.937,-14.375c13.958,-3.333 27.604,-5 40.938,-5c29.375,0 52.135,6.563 68.281,19.688c16.146,13.125 24.219,33.958 24.219,62.5l0,91.875l-65.625,0Zm-48.438,3.125c-13.958,0 -25.625,-2.396 -35,-7.188c-9.375,-4.792 -16.458,-11.198 -21.25,-19.219c-4.792,-8.021 -7.188,-16.927 -7.188,-26.719c0,-11.042 2.812,-20.417 8.438,-28.125c5.625,-7.708 14.219,-13.542 25.781,-17.5c11.562,-3.958 26.198,-5.938 43.906,-5.938l35.625,0l0,34.062l-24.375,0c-7.5,0 -12.969,1.198 -16.406,3.594c-3.438,2.396 -5.156,5.99 -5.156,10.781c0,3.958 1.51,7.24 4.531,9.844c3.021,2.604 7.135,3.906 12.344,3.906c4.792,0 9.219,-1.302 13.281,-3.906c4.062,-2.604 7.031,-6.719 8.906,-12.344l9.062,20.938c-2.708,12.708 -8.438,22.188 -17.188,28.438c-8.75,6.25 -20.521,9.375 -35.312,9.375Z" style="fill:#3258a6;fill-rule:nonzero;"/><path d="M679.649,458.428l0,-170.938l67.188,0l0,50l-13.438,-14.375c6.667,-12.917 15.677,-22.604 27.031,-29.062c11.354,-6.458 24.01,-9.688 37.969,-9.688c13.125,0 25,2.656 35.625,7.969c10.625,5.312 19.01,13.594 25.156,24.844c6.146,11.25 9.219,25.833 9.219,43.75l0,97.5l-70.625,0l0,-85.312c0,-10.625 -1.875,-18.177 -5.625,-22.656c-3.75,-4.479 -8.854,-6.719 -15.312,-6.719c-4.792,0 -9.219,1.094 -13.281,3.281c-4.062,2.188 -7.292,5.781 -9.688,10.781c-2.396,5 -3.594,11.771 -3.594,20.312l0,80.312l-70.625,0Z" style="fill:#3258a6;fill-rule:nonzero;"/><path d="M958.086,430.303l1.562,-83.125l59.062,-59.688l83.438,0l-78.125,81.875l-35.312,28.438l-30.625,32.5Zm-59.062,28.125l0,-231.875l70.625,0l0,231.875l-70.625,0Zm123.438,0l-46.875,-59.375l43.438,-53.438l88.75,112.812l-85.312,0Z" style="fill:#3258a6;fill-rule:nonzero;"/></g></svg>